#!OML:ASF E:\Style6\Style6.ASF
:FULLY-SPECIFIED
:DEGREES
2193
root 0.450906 18.2421 1.30929 10.2847 0.727401 -0.774376
lowerback -2.84867 -1.16984 1.2155
upperback -11.4655 -1.20081 4.16288
thorax -10.548 -0.460552 3.87025
lowerneck -0.430508 0.366379 2.70059
upperneck -1.41635 0.393671 -8.59246
head -0.348462 0.213606 -3.22493
rclavicle -1.82882e-014 -4.77083e-015
rhumerus -42.1004 18.4519 -72.7366
rradius 85.194
rwrist -11.18
rhand -40.596 19.5539
rfingers 7.12502
rthumb -13.5422 -9.98577
lclavicle -1.82882e-014 -4.77083e-015
lhumerus -9.9427 -10.9792 48.9325
lradius 105.337
lwrist 42.9632
lhand -31.2799 24.4828
lfingers 7.12502
lthumb -4.55345 54.4138
rfemur -7.72699 9.40711 18.1702
rtibia 7.94746
rfoot -8.25321 -13.9661
rtoes 1.90951
lfemur -9.12406 -23.0962 -16.3826
ltibia 13.779
lfoot -7.06406 24.0352
ltoes -12.2709
2194
root 0.448075 18.2456 1.2879 10.2408 0.780032 -1.0676
lowerback -2.45463 -1.21318 1.58361
upperback -11.3105 -1.2312 4.24291
thorax -10.6117 -0.505311 3.75918
lowerneck -0.477292 0.37642 2.75248
upperneck -1.58185 0.395416 -8.61684
head -0.392541 0.216447 -3.24377
rclavicle -4.37326e-015 2.70347e-014
rhumerus -42.4215 18.7019 -73.0483
rradius 86.1376
rwrist -11.1144
rhand -40.7982 19.5873
rfingers 7.12502
rthumb -13.7371 -9.93922
lclavicle -4.37326e-015 2.70347e-014
lhumerus -9.69673 -10.7536 48.8506
lradius 104.628
lwrist 42.9163
lhand -31.1181 24.4391
lfingers 7.12502
lthumb -4.3972 54.3734
rfemur -7.83744 9.42129 18.5217
rtibia 8.10096
rfoot -8.22835 -14.0732
rtoes 1.42507
lfemur -9.15949 -23.1195 -16.0117
ltibia 13.7685
lfoot -7.12435 24.0181
ltoes -11.9874
2195
root 0.444303 18.247 1.26801 10.2285 0.776081 -1.48273
lowerback -2.10806 -1.20741 2.07649
upperback -11.1871 -1.1862 4.34181
thorax -10.6916 -0.522979 3.59426
lowerneck -0.433578 0.365486 2.67239
upperneck -1.71924 0.372835 -8.52572
head -0.445259 0.208915 -3.19797
rclavicle -1.94809e-014 7.15625e-014
rhumerus -42.8192 18.9671 -73.338
rradius 87.1238
rwrist -11.1938
rhand -41.0246 19.6102
rfingers 7.12502
rthumb -13.9553 -9.90149
lclavicle -1.94809e-014 7.15625e-014
lhumerus -9.49556 -10.5855 48.8125
lradius 103.907
lwrist 42.9095
lhand -30.8595 24.5596
lfingers 7.12502
lthumb -4.1475 54.499
rfemur -7.88217 9.51043 18.9761
rtibia 8.03359
rfoot -8.09271 -14.1679
rtoes 1.12135
lfemur -9.29444 -23.0589 -15.5085
ltibia 13.9052
lfoot -7.23084 24.0216
ltoes -11.5178
2196
root 0.440691 18.2477 1.24956 10.334 0.675692 -1.55488
lowerback -1.92208 -1.20689 2.17711
upperback -11.0932 -1.17556 4.36371
thorax -10.6981 -0.526309 3.56297
lowerneck -0.401998 0.380996 2.5452
upperneck -1.8507 0.38723 -8.35795
head -0.491636 0.219396 -3.11708
rclavicle 2.78299e-015 -1.74931e-014
rhumerus -43.1767 19.2995 -73.6023
rradius 88.1807
rwrist -11.4519
rhand -41.026 19.6648
rfingers 7.12502
rthumb -13.9567 -9.84671
lclavicle 2.78299e-015 -1.74931e-014
lhumerus -9.39231 -10.4689 48.7871
lradius 103.165
lwrist 42.9802
lhand -30.6258 24.6409
lfingers 7.12502
lthumb -3.9218 54.5845
rfemur -7.94254 9.6195 18.9942
rtibia 7.73416
rfoot -7.94305 -14.2209
rtoes 1.98726
lfemur -9.59973 -22.9138 -15.3587
ltibia 14.1434
lfoot -7.38899 23.9764
ltoes -11.2225
2197
root 0.437187 18.2497 1.23047 10.4975 0.605509 -1.42845
lowerback -1.737 -1.22327 2.07339
upperback -11.0523 -1.19948 4.32134
thorax -10.7589 -0.530637 3.5815
lowerneck -0.426736 0.403245 2.55881
upperneck -1.93282 0.412688 -8.28474
head -0.511778 0.232704 -3.09496
rclavicle -6.55989e-015 6.36111e-015
rhumerus -43.5702 19.604 -73.8672
rradius 89.2641
rwrist -11.6908
rhand -41.0414 19.8645
rfingers 7.12502
rthumb -13.9715 -9.64605
lclavicle -6.55989e-015 6.36111e-015
lhumerus -9.31998 -10.4694 48.7517
lradius 102.473
lwrist 43.2282
lhand -30.4907 24.6042
lfingers 7.12502
lthumb -3.79131 54.5502
rfemur -8.16608 9.66182 18.8061
rtibia 7.65615
rfoot -7.80669 -14.3053
rtoes 1.76337
lfemur -9.90377 -22.7622 -15.4018
ltibia 14.2321
lfoot -7.27568 23.8896
ltoes -11.5894
2198
root 0.434013 18.2506 1.21299 10.6574 0.529077 -1.28435
lowerback -1.61657 -1.24899 1.95164
upperback -10.9987 -1.24146 4.27264
thorax -10.7647 -0.543192 3.60154
lowerneck -0.333236 0.441708 2.71597
upperneck -2.11515 0.452506 -8.33537
head -0.583423 0.25717 -3.14372
rclavicle 5.76476e-015 -3.33958e-014
rhumerus -43.9194 19.9704 -74.1771
rradius 90.3587
rwrist -11.9757
rhand -41.2257 20.0793
rfingers 7.12502
rthumb -14.1491 -9.41886
lclavicle 5.76476e-015 -3.33958e-014
lhumerus -9.25841 -10.5058 48.711
lradius 101.812
lwrist 43.6438
lhand -30.5116 24.5151
lfingers 7.12502
lthumb -3.81148 54.4608
rfemur -8.49265 9.7088 18.6084
rtibia 7.81104
rfoot -7.74978 -14.381
rtoes 1.26846
lfemur -10.1229 -22.698 -15.4618
ltibia 14.1744
lfoot -7.151 23.8598
ltoes -11.6329
2199
root 0.432354 18.2522 1.19703 10.7832 0.452948 -1.25674
lowerback -1.44498 -1.24518 1.98431
upperback -10.9649 -1.23216 4.23494
thorax -10.8309 -0.543479 3.54651
lowerneck -0.260351 0.476691 2.74629
upperneck -2.24277 0.492593 -8.28989
head -0.634209 0.280606 -3.13522
rclavicle -2.78299e-015 -3.18055e-015
rhumerus -44.2802 20.319 -74.4491
rradius 91.4322
rwrist -12.3002
rhand -41.4091 20.4432
rfingers 7.12502
rthumb -14.3259 -9.04253
lclavicle -2.78299e-015 -3.18055e-015
lhumerus -9.22855 -10.6514 48.7185
lradius 101.09
lwrist 43.983
lhand -30.6725 24.359
lfingers 7.12502
lthumb -3.96685 54.3018
rfemur -8.78812 9.77933 18.5421
rtibia 7.97688
rfoot -7.62816 -14.4735
rtoes -0.033663
lfemur -10.2792 -22.7023 -15.4055
ltibia 14.081
lfoot -7.19657 23.8873
ltoes -10.9044
